External Loads File
version=1
nRows=31
nColumns=13
Range=5.000000e-03-10 seconds
endheader
time 	forceRightX 	forceRightY 	forceRightZ 	pointRightX 	pointRightY 	pointRightZ 	forceLeftX 	forceLeftY 	forceLeftZ 	pointLeftX 	pointLeftY 	pointLeftZ 		
5.005000 -145.245362 -127.594089 -0.000000 0.315951 0.517060 -0.119379 155.866456 257.396850 -0.000000 0.237748 0.159903 -0.360927
5.010000 -144.142086 -108.635038 -0.000000 0.324474 0.513984 -0.119127 147.574420 201.768466 -0.000000 0.229556 0.163234 -0.360687
5.015000 -143.416467 -86.677224 -0.000000 0.332670 0.510054 -0.118792 136.967848 150.743179 -0.000000 0.221598 0.167171 -0.360710
5.020000 -143.991450 -61.559399 -0.000000 0.340449 0.505350 -0.118466 124.718604 105.511590 -0.000000 0.213838 0.171677 -0.360056
5.025000 -146.880252 -32.790583 -0.000000 0.347782 0.499816 -0.118117 111.723980 66.809191 -0.000000 0.205794 0.176646 -0.357609
5.030000 -152.832309 -0.243106 -0.000000 0.354780 0.493238 -0.117468 98.631009 35.380210 -0.000000 0.198532 0.182075 -0.357236
5.035000 -162.514455 36.803647 -0.000000 0.361208 0.485705 -0.116715 86.345350 11.096082 -0.000000 0.191485 0.188002 -0.357027
5.040000 -175.995601 79.085712 -0.000000 0.367343 0.477086 -0.115898 75.519189 -6.571755 -0.000000 0.184737 0.194654 -0.356696
5.045000 -192.934909 126.581104 -0.000000 0.373123 0.468000 -0.114991 66.595166 -18.241192 -0.000000 0.178226 0.201523 -0.356438
5.050000 -212.407621 179.138960 -0.000000 0.378341 0.458364 -0.114198 59.822015 -24.902029 -0.000000 0.171911 0.208989 -0.356383
5.055000 -233.244590 235.911795 -0.000000 0.383491 0.448514 -0.113943 55.247062 -27.533741 -0.000000 0.165912 0.216644 -0.356210
5.060000 -254.044443 295.773366 -0.000000 0.388159 0.438318 -0.113800 52.698892 -27.087527 -0.000000 0.160378 0.225122 -0.355995
5.065000 -273.037627 357.734344 -0.000000 0.392587 0.427634 -0.113570 51.828489 -24.411350 -0.000000 0.155005 0.234242 -0.356026
5.070000 -290.289155 419.599340 -0.000000 0.396206 0.416665 -0.113127 52.362901 -19.936929 -0.000000 0.150335 0.243707 -0.355715
5.075000 -304.497636 480.703199 -0.000000 0.399732 0.405574 -0.113091 53.919097 -14.221165 -0.000000 0.146029 0.253425 -0.355707
5.080000 -315.217989 540.099575 -0.000000 0.402816 0.394298 -0.113132 56.199906 -7.641100 -0.000000 0.142314 0.263490 -0.355450
5.085000 -321.849098 597.228105 -0.000000 0.405430 0.382890 -0.112879 58.941016 -0.592492 -0.000000 0.139024 0.273817 -0.355364
5.090000 -324.052992 651.572499 -0.000000 0.407616 0.371353 -0.112954 61.914413 6.530474 -0.000000 0.136367 0.284343 -0.355262
5.095000 -320.960111 703.028763 -0.000000 0.409287 0.359508 -0.112905 64.913145 13.263343 -0.000000 0.134400 0.295091 -0.355229
5.100000 -313.163841 750.927199 -0.000000 0.410401 0.347723 -0.112727 67.735185 19.263446 -0.000000 0.132965 0.306017 -0.355354
5.105000 -301.776188 794.648594 -0.000000 0.410907 0.336292 -0.112402 70.192836 24.211519 -0.000000 0.132055 0.317078 -0.355418
5.110000 -284.447459 835.081295 -0.000000 0.410914 0.324216 -0.112251 72.245499 27.481727 -0.000000 0.131859 0.328238 -0.355447
5.115000 -264.685024 871.106429 -0.000000 0.410517 0.312576 -0.111865 73.677129 28.987687 -0.000000 0.132193 0.339571 -0.355390
5.120000 -241.935089 903.206061 -0.000000 0.409654 0.301126 -0.111970 74.360136 28.352137 -0.000000 0.133152 0.351243 -0.355362
5.125000 -219.252624 930.783644 -0.000000 0.408197 0.289994 -0.110937 74.020411 25.642037 -0.000000 0.134726 0.362552 -0.355071
5.130000 -194.929310 954.388530 -0.000000 0.406394 0.278903 -0.110240 72.539791 20.727639 -0.000000 0.136973 0.373894 -0.355048
5.135000 -169.628570 973.751403 -0.000000 0.403507 0.268156 -0.110832 69.773739 13.861573 -0.000000 0.139654 0.385215 -0.354876
5.140000 -145.362691 988.383069 -0.000000 0.400462 0.257715 -0.110592 65.668166 5.523769 -0.000000 0.142843 0.396191 -0.354707
5.145000 -120.660310 998.359945 -0.000000 0.396826 0.247616 -0.110286 60.330708 -3.964176 -0.000000 0.146677 0.407078 -0.354573
5.150000 -96.972750 1003.198266 -0.000000 0.392644 0.238006 -0.110055 53.949071 -14.056201 -0.000000 0.150992 0.417585 -0.354437
5.155000 -72.369435 1002.640648 -0.000000 0.387948 0.228722 -0.109946 46.730272 -24.428383 -0.000000 0.156323 0.427768 -0.353988
